<svg width="1804" height="367" viewBox="0 0 1804 367" fill="none" xmlns="http://www.w3.org/2000/svg">
<g clip-path="url(#clip0_101_190)">
<path d="M129.332 364.356C120.224 360.749 118.224 353.783 124.296 347.032C128.904 341.923 136.69 337.958 145.405 335.494C148.191 334.708 150.584 333.493 152.37 332.136C157.084 328.492 155.87 324.384 149.655 322.991L74.8992 306.309C73.3634 305.952 72.8991 303.952 74.1492 302.987L219.661 189.894C229.34 182.357 247.556 178.57 260.307 181.428L452.393 224.293C454.001 224.651 454.465 226.722 453.179 227.723L396.853 271.517C392.139 275.16 383.281 277.018 377.102 275.625C374.78 275.125 372.994 274.196 372.173 272.981C369.637 269.159 363.672 266.23 354.421 265.337C342.206 264.158 327.098 267.266 316.954 273.089C300.417 282.555 302.132 294.486 318.883 298.201C324.883 299.558 331.92 299.63 338.92 298.665C341.885 298.272 344.742 298.344 347.099 298.879C353.314 300.272 354.529 304.345 349.814 308.024L292.524 352.533C291.059 353.676 289.13 354.104 287.345 353.711L211.553 336.815C205.338 335.422 196.516 337.28 191.801 340.923C190.016 342.316 188.98 343.852 188.944 345.281C188.837 348.675 186.622 352.354 182.051 355.89C169.335 365.75 144.119 370.143 129.296 364.321L129.332 364.356Z" fill="#333333"/>
<path d="M128.582 363.963C115.438 358.427 104.865 345.388 102.365 331.671C100.472 321.312 103.044 312.596 108.366 306.667C110.08 304.773 110.902 302.13 110.902 299.272C110.902 291.628 104.687 284.019 97.0434 282.269L3.21454 260.872C1.32153 260.443 0 258.764 0 256.835V22.6827C0 6.96538 12.7867 -2.85796 28.538 0.749887L266.95 51.3669C269.021 51.8313 270.486 53.6888 270.486 55.7963V148.922C270.486 156.566 264.271 161.317 256.627 159.567C253.77 158.924 250.948 157.459 248.663 155.209C241.519 148.279 232.197 143.599 222.232 143.206C209.052 142.67 198.409 150.779 195.873 163.317C191.729 183.75 208.052 206.183 228.732 210.898C236.126 212.577 242.984 211.72 248.52 208.933C250.877 207.754 253.734 207.504 256.627 208.147C264.271 209.898 270.486 217.506 270.486 225.151V318.169C270.486 320.098 268.7 321.527 266.843 321.098L173.478 299.772C165.835 298.022 159.62 302.809 159.62 310.453C159.62 313.382 160.513 316.418 162.263 319.169C166.335 325.635 168.763 332.993 168.763 340.387C168.763 361.034 150.012 373.001 128.582 363.963Z" fill="#F0842C"/>
<path d="M1590.98 213.041C1585.41 157.316 1544.51 114.022 1494.87 114.022C1441.44 114.022 1398.11 164.175 1398.11 226.008C1398.11 243.94 1401.75 260.836 1408.22 275.875C1422.54 309.131 1450.72 332.993 1484.01 337.315C1487.58 337.78 1491.19 338.03 1494.87 338.03C1495.3 338.03 1495.73 338.03 1496.15 337.994C1496.55 337.994 1496.9 338.03 1497.3 338.03C1531.84 338.03 1561.73 325.135 1576.59 306.309C1579.16 303.059 1578.73 298.344 1575.8 295.414L1572.77 292.378L1558.66 278.268C1555.37 274.982 1550.19 275.196 1546.91 278.447C1536.41 288.877 1518.05 295.772 1497.15 295.772C1496.62 295.772 1496.08 295.736 1495.55 295.736C1494.73 295.736 1493.94 295.7 1493.15 295.664C1471.22 294.486 1453.19 270.91 1449.01 239.761C1448.83 238.511 1449.83 237.403 1451.08 237.403H1572.09C1582.66 237.403 1591.23 228.83 1591.23 218.257V217.221C1591.23 216.399 1591.13 213.756 1590.98 212.97V213.041ZM1452.33 204.004C1451.36 204.004 1450.61 203.075 1450.86 202.146C1457.4 175.355 1474.62 156.173 1494.87 156.173C1515.12 156.173 1532.34 175.32 1538.87 202.146C1539.09 203.075 1538.37 204.004 1537.41 204.004H1452.36H1452.33Z" fill="#333333"/>
<path d="M1803.71 213.041C1798.14 157.316 1757.25 114.022 1707.6 114.022C1654.17 114.022 1610.84 164.175 1610.84 226.008C1610.84 243.94 1614.48 260.836 1620.95 275.875C1635.27 309.131 1663.45 332.993 1696.74 337.315C1700.31 337.78 1703.92 338.03 1707.6 338.03C1708.03 338.03 1708.46 338.03 1708.89 337.994C1709.28 337.994 1709.64 338.03 1710.03 338.03C1744.57 338.03 1774.46 325.135 1789.32 306.309C1791.89 303.059 1791.46 298.344 1788.53 295.414L1785.5 292.378L1771.39 278.268C1768.1 274.982 1762.93 275.196 1759.64 278.447C1749.14 288.877 1730.78 295.772 1709.89 295.772C1709.35 295.772 1708.81 295.736 1708.28 295.736C1707.46 295.736 1706.67 295.7 1705.88 295.664C1683.95 294.486 1665.92 270.91 1661.74 239.761C1661.56 238.511 1662.56 237.403 1663.81 237.403H1784.82C1795.39 237.403 1803.96 228.83 1803.96 218.257V217.221C1803.96 216.399 1803.86 213.756 1803.71 212.97V213.041ZM1665.1 204.004C1664.13 204.004 1663.38 203.075 1663.63 202.146C1670.17 175.355 1687.38 156.173 1707.64 156.173C1727.89 156.173 1745.1 175.32 1751.64 202.146C1751.85 203.075 1751.14 204.004 1750.17 204.004H1665.13H1665.1Z" fill="#333333"/>
<path d="M787.526 118.88H755.559C746.979 118.88 740.022 125.837 740.022 134.419V322.455C740.022 331.037 746.979 337.994 755.559 337.994H787.526C796.107 337.994 803.063 331.037 803.063 322.455V134.419C803.063 125.837 796.107 118.88 787.526 118.88Z" fill="#F0842C"/>
<path d="M697.948 25.4691H542.9C534.614 25.4691 527.863 32.1847 527.863 40.5077V322.491C527.863 331.064 534.828 338.03 543.4 338.03H575.367C583.939 338.03 590.904 331.064 590.904 322.491V219.4C590.904 217.614 592.368 216.149 594.154 216.149H679.232C686.626 216.149 692.591 210.148 692.591 202.789V175.284C692.591 167.89 686.59 161.924 679.232 161.924H594.94C592.726 161.924 590.904 160.138 590.904 157.888V90.446C590.904 88.2313 592.69 86.4095 594.94 86.4095H697.984C706.27 86.4095 713.021 79.6939 713.021 71.3709V40.472C713.021 32.1847 706.306 25.4333 697.984 25.4333L697.948 25.4691Z" fill="#F0842C"/>
<path d="M771.525 99.412C791.508 99.412 807.707 83.2112 807.707 63.2264C807.707 43.2416 791.508 27.0408 771.525 27.0408C751.543 27.0408 735.344 43.2416 735.344 63.2264C735.344 83.2112 751.543 99.412 771.525 99.412Z" fill="#F0842C"/>
<path d="M926.467 165.318H958.683C965.005 165.318 970.113 160.21 970.113 153.887V130.347C970.113 124.024 965.005 118.916 958.683 118.916H926.467C925.181 118.916 924.145 117.88 924.145 116.594V71.5138C924.145 62.9407 917.18 55.9751 908.608 55.9751H876.641C868.069 55.9751 861.104 62.9407 861.104 71.5138V116.594C861.104 117.88 860.068 118.916 858.783 118.916H831.566C825.244 118.916 820.137 124.024 820.137 130.347V153.887C820.137 160.21 825.244 165.318 831.566 165.318H858.783C860.068 165.318 861.104 166.354 861.104 167.64V274.982C861.104 307.881 886.321 334.851 918.43 337.709C919.323 337.887 920.216 337.994 921.18 337.994H956.719C964.112 337.994 970.077 331.993 970.077 324.635V297.129C970.077 289.735 964.077 283.769 956.719 283.769H936.61C929.074 283.769 923.431 277.625 924.109 270.088V167.64C924.109 166.354 925.145 165.318 926.431 165.318H926.467Z" fill="#F0842C"/>
<path d="M1377.32 114.022H1364.68C1352.57 114.022 1336.86 123.381 1322.03 145.492C1321.36 146.528 1319.75 146.064 1319.75 144.849V131.097C1319.68 124.381 1314.21 118.916 1307.5 118.916H1273.35C1265.71 118.916 1259.53 125.131 1259.56 132.776L1260.14 319.562C1260.14 327.171 1266.32 333.315 1273.92 333.315H1306.46C1314.1 333.315 1320.28 327.099 1320.25 319.455L1319.89 201.36C1319.89 199.003 1320.53 196.645 1321.86 194.681C1329.68 183.035 1341.5 170.783 1356.5 170.783H1377.29C1383.29 170.783 1388.15 165.925 1388.15 159.924V124.846C1388.15 118.844 1383.29 113.986 1377.29 113.986L1377.32 114.022Z" fill="#333333"/>
<path d="M1143.77 283.769C1096.16 283.769 1057.55 238.582 1057.55 182.857C1057.55 127.132 1096.16 81.9444 1143.77 81.9444C1162.88 81.9444 1180.52 89.1959 1194.81 101.52C1198.92 105.056 1205.17 104.663 1208.99 100.805L1231.99 77.8008C1236.24 73.55 1236.17 66.5843 1231.74 62.5478C1206.49 39.4362 1173.88 25.5049 1138.27 25.5049C1057.98 25.5049 992.9 96.2687 992.9 183.536C992.9 270.803 1057.98 341.566 1138.27 341.566C1175.31 341.566 1209.06 326.492 1234.74 301.701C1238.99 297.594 1238.99 290.771 1234.81 286.591L1211.31 263.087C1207.35 259.122 1200.85 258.765 1196.7 262.551C1182.09 275.875 1163.74 283.805 1143.81 283.805L1143.77 283.769Z" fill="#333333"/>
</g>
<defs>
<clipPath id="clip0_101_190">
<rect width="1804" height="367" fill="white"/>
</clipPath>
</defs>
</svg>
