<svg width="60" height="48" viewBox="0 0 60 48" fill="none" xmlns="http://www.w3.org/2000/svg">
<g clip-path="url(#clip0_3073_20050)">
<path d="M17.0159 47.6506C15.8176 47.1788 15.5545 46.2678 16.3534 45.3848C16.9595 44.7167 17.984 44.1981 19.1306 43.8758C19.4971 43.773 19.812 43.6142 20.0469 43.4366C20.6672 42.9601 20.5075 42.4228 19.6898 42.2406L9.85435 40.0589C9.65228 40.0122 9.59119 39.7506 9.75567 39.6244L28.9002 24.8334C30.1737 23.8476 32.5703 23.3524 34.2479 23.7262L59.5203 29.3324C59.7317 29.3791 59.7928 29.6501 59.6236 29.7809L52.213 35.5085C51.5927 35.9851 50.4273 36.228 49.6143 36.0458C49.3089 35.9804 49.0739 35.8589 48.9658 35.7001C48.6322 35.2002 47.8474 34.8171 46.6303 34.7003C45.0232 34.5461 43.0354 34.9526 41.7009 35.7141C39.5251 36.9521 39.7507 38.5125 41.9546 38.9984C42.7441 39.1759 43.6698 39.1853 44.5909 39.0591C44.9809 39.0077 45.3568 39.0171 45.667 39.0872C46.4847 39.2694 46.6444 39.802 46.0241 40.2832L38.4866 46.1043C38.2939 46.2538 38.0402 46.3098 37.8052 46.2584L27.8335 44.0486C27.0159 43.8664 25.8551 44.1094 25.2349 44.5859C24.9999 44.7681 24.8636 44.969 24.8589 45.1559C24.8448 45.5997 24.5535 46.0809 23.952 46.5434C22.2791 47.8328 18.9614 48.4075 17.0112 47.646L17.0159 47.6506Z" fill="#333333"/>
<path d="M16.9171 47.6008C15.1878 46.8766 13.7969 45.1714 13.4679 43.3774C13.2189 42.0226 13.5572 40.8827 14.2574 40.1072C14.483 39.8596 14.591 39.5138 14.591 39.1401C14.591 38.1403 13.7734 37.1452 12.7677 36.9163L0.422929 34.1179C0.173871 34.0618 0 33.8422 0 33.59V2.9661C0 0.910494 1.68232 -0.374259 3.75467 0.0975956L35.1219 6.71758C35.3944 6.77831 35.5871 7.02125 35.5871 7.29689V19.4764C35.5871 20.4761 34.7694 21.0975 33.7638 20.8686C33.3879 20.7845 33.0166 20.5929 32.7159 20.2986C31.776 19.3923 30.5495 18.7802 29.2385 18.7289C27.5045 18.6588 26.1041 19.7193 25.7704 21.3591C25.2253 24.0314 27.3729 26.9653 30.0937 27.582C31.0665 27.8016 31.9687 27.6894 32.6971 27.325C33.0072 27.1709 33.3832 27.1382 33.7638 27.2222C34.7694 27.4512 35.5871 28.4463 35.5871 29.446V41.6115C35.5871 41.8638 35.3521 42.0506 35.1078 41.9946L22.824 39.2055C21.8184 38.9766 21.0007 39.6026 21.0007 40.6024C21.0007 40.9855 21.1182 41.3826 21.3485 41.7423C21.8842 42.5879 22.2037 43.5503 22.2037 44.5174C22.2037 47.2177 19.7367 48.7827 16.9171 47.6008Z" fill="#F0842C"/>
</g>
<defs>
<clipPath id="clip0_3073_20050">
<rect width="60" height="48" fill="white"/>
</clipPath>
</defs>
</svg>
